{
  "accessors": [
    {
      "bufferView": 2,
      "componentType": 5126,
      "count": 1431,
      "max": [
        40.01765823364258,
        119.494384765625,
        26.915077209472656
      ],
      "min": [
        -40.03590774536133,
        4.440892098500626e-14,
        -26.915077209472656
      ],
      "type": "VEC3"
    },
    {
      "bufferView": 2,
      "byteOffset": 17172,
      "componentType": 5126,
      "count": 1431,
      "max": [
        1.0,
        1.0,
        1.0
      ],
      "min": [
        -1.0,
        -1.0,
        -1.0
      ],
      "type": "VEC3"
    },
    {
      "bufferView": 3,
      "componentType": 5126,
      "count": 1431,
      "max": [
        1.0,
        1.0,
        1.0,
        1.0
      ],
      "min": [
        -1.0,
        -1.0,
        -1.0,
        1.0
      ],
      "type": "VEC4"
    },
    {
      "bufferView": 1,
      "componentType": 5126,
      "count": 1431,
      "max": [
        0.9752182364463806,
        0.9980079531669617
      ],
      "min": [
        0.001946543576195836,
        0.00199203216470778
      ],
      "type": "VEC2"
    },
    {
      "bufferView": 1,
      "byteOffset": 11448,
      "componentType": 5126,
      "count": 1431,
      "max": [
        0.9752182364463806,
        0.9980079531669617
      ],
      "min": [
        0.001946543576195836,
        0.00199203216470778
      ],
      "type": "VEC2"
    },
    {
      "bufferView": 1,
      "byteOffset": 22896,
      "componentType": 5126,
      "count": 1431,
      "max": [
        0.9752182364463806,
        0.9980079531669617
      ],
      "min": [
        0.001946543576195836,
        0.00199203216470778
      ],
      "type": "VEC2"
    },
    {
      "bufferView": 1,
      "byteOffset": 34344,
      "componentType": 5126,
      "count": 1431,
      "max": [
        0.9752182364463806,
        0.9980079531669617
      ],
      "min": [
        0.001946543576195836,
        0.00199203216470778
      ],
      "type": "VEC2"
    },
    {
      "bufferView": 1,
      "byteOffset": 45792,
      "componentType": 5126,
      "count": 1431,
      "max": [
        0.9752182364463806,
        0.9980079531669617
      ],
      "min": [
        0.001946543576195836,
        0.00199203216470778
      ],
      "type": "VEC2"
    },
    {
      "bufferView": 0,
      "componentType": 5125,
      "count": 3273,
      "type": "SCALAR"
    },
    {
      "bufferView": 2,
      "byteOffset": 34344,
      "componentType": 5126,
      "count": 24,
      "max": [
        33.74651336669922,
        116.91102600097656,
        25.604995727539063
      ],
      "min": [
        -35.41407775878906,
        43.23439025878906,
        -25.185768127441406
      ],
      "type": "VEC3"
    },
    {
      "bufferView": 2,
      "byteOffset": 34632,
      "componentType": 5126,
      "count": 24,
      "max": [
        1.3018893696425948e-07,
        -0.005528033711016178,
        0.9999847412109375
      ],
      "min": [
        0.0,
        -0.005528126377612352,
        -0.9999847412109375
      ],
      "type": "VEC3"
    },
    {
      "bufferView": 1,
      "byteOffset": 57240,
      "componentType": 5126,
      "count": 24,
      "max": [
        0.7016979455947876,
        0.5705539584159851
      ],
      "min": [
        0.23257721960544586,
        0.32387056946754456
      ],
      "type": "VEC2"
    },
    {
      "bufferView": 0,
      "byteOffset": 13092,
      "componentType": 5125,
      "count": 60,
      "type": "SCALAR"
    },
    {
      "bufferView": 2,
      "byteOffset": 34920,
      "componentType": 5126,
      "count": 352,
      "max": [
        26.020355224609375,
        117.116455078125,
        20.609786987304688
      ],
      "min": [
        1.3530243635177612,
        39.02114486694336,
        -20.609786987304688
      ],
      "type": "VEC3"
    },
    {
      "bufferView": 2,
      "byteOffset": 39144,
      "componentType": 5126,
      "count": 352,
      "max": [
        0.965928316116333,
        0.9659274220466614,
        1.0
      ],
      "min": [
        -0.9659268856048584,
        -0.9659274220466614,
        -1.0
      ],
      "type": "VEC3"
    },
    {
      "bufferView": 3,
      "byteOffset": 22896,
      "componentType": 5126,
      "count": 352,
      "max": [
        1.0,
        0.9659282565116882,
        1.9414252960814338e-07,
        1.0
      ],
      "min": [
        -0.9659273028373718,
        -0.9659268856048584,
        -0.0,
        1.0
      ],
      "type": "VEC4"
    },
    {
      "bufferView": 1,
      "byteOffset": 57432,
      "componentType": 5126,
      "count": 352,
      "max": [
        0.65625,
        1.0
      ],
      "min": [
        0.34375,
        0.0
      ],
      "type": "VEC2"
    },
    {
      "bufferView": 1,
      "byteOffset": 60248,
      "componentType": 5126,
      "count": 352,
      "max": [
        0.65625,
        1.0
      ],
      "min": [
        0.34375,
        0.0
      ],
      "type": "VEC2"
    },
    {
      "bufferView": 1,
      "byteOffset": 63064,
      "componentType": 5126,
      "count": 352,
      "max": [
        0.65625,
        1.0
      ],
      "min": [
        0.34375,
        0.0
      ],
      "type": "VEC2"
    },
    {
      "bufferView": 1,
      "byteOffset": 65880,
      "componentType": 5126,
      "count": 352,
      "max": [
        0.65625,
        1.0
      ],
      "min": [
        0.34375,
        0.0
      ],
      "type": "VEC2"
    },
    {
      "bufferView": 1,
      "byteOffset": 68696,
      "componentType": 5126,
      "count": 352,
      "max": [
        0.65625,
        1.0
      ],
      "min": [
        0.34375,
        0.0
      ],
      "type": "VEC2"
    },
    {
      "bufferView": 0,
      "byteOffset": 13332,
      "componentType": 5125,
      "count": 660,
      "type": "SCALAR"
    },
    {
      "bufferView": 2,
      "byteOffset": 43368,
      "componentType": 5126,
      "count": 26408,
      "max": [
        25.169065475463867,
        113.24560546875,
        24.353862762451172
      ],
      "min": [
        -8.753981590270996,
        40.73454284667969,
        -24.19047737121582
      ],
      "type": "VEC3"
    },
    {
      "bufferView": 2,
      "byteOffset": 360264,
      "componentType": 5126,
      "count": 26408,
      "max": [
        1.0,
        1.0,
        1.0
      ],
      "min": [
        -1.0,
        -0.999835729598999,
        -1.0
      ],
      "type": "VEC3"
    },
    {
      "bufferView": 1,
      "byteOffset": 71512,
      "componentType": 5126,
      "count": 26408,
      "max": [
        1.0000001192092896,
        1.0
      ],
      "min": [
        5.960464477539063e-08,
        -5.960464477539063e-08
      ],
      "type": "VEC2"
    },
    {
      "bufferView": 0,
      "byteOffset": 15972,
      "componentType": 5125,
      "count": 100680,
      "type": "SCALAR"
    }
  ],
  "asset": {
    "extras": {
      "author": "Luis Carlos CG (https://sketchfab.com/luis_cg)",
      "license": "CC-BY-4.0 (http://creativecommons.org/licenses/by/4.0/)",
      "source": "https://sketchfab.com/3d-models/water-fridge-c57d169e7fe947a19215636da64d5140",
      "title": "Water Fridge"
    },
    "generator": "Sketchfab-15.44.0",
    "version": "2.0"
  },
  "bufferViews": [
    {
      "buffer": 0,
      "byteLength": 418692,
      "name": "floatBufferViews",
      "target": 34963
    },
    {
      "buffer": 0,
      "byteLength": 282776,
      "byteOffset": 418692,
      "byteStride": 8,
      "name": "floatBufferViews",
      "target": 34962
    },
    {
      "buffer": 0,
      "byteLength": 677160,
      "byteOffset": 701468,
      "byteStride": 12,
      "name": "floatBufferViews",
      "target": 34962
    },
    {
      "buffer": 0,
      "byteLength": 28528,
      "byteOffset": 1378628,
      "byteStride": 16,
      "name": "floatBufferViews",
      "target": 34962
    }
  ],
  "buffers": [
    {
      "byteLength": 1407156,
      "uri": "scene.bin"
    }
  ],
  "extensionsUsed": [
    "KHR_materials_clearcoat",
    "KHR_materials_emissive_strength"
  ],
  "images": [
    {
      "uri": "textures/M_friedge_baseColor.jpeg"
    },
    {
      "uri": "textures/M_friedge_metallicRoughness.png"
    },
    {
      "uri": "textures/M_friedge_emissive.jpeg"
    },
    {
      "uri": "textures/M_friedge_normal.png"
    },
    {
      "uri": "textures/M_friedge_lights_baseColor.jpeg"
    },
    {
      "uri": "textures/M_friedge_lights_metallicRoughness.png"
    },
    {
      "uri": "textures/M_friedge_lights_normal.png"
    },
    {
      "uri": "textures/M_bottles_baseColor.jpeg"
    }
  ],
  "materials": [
    {
      "doubleSided": true,
      "emissiveFactor": [
        1.0,
        1.0,
        1.0
      ],
      "emissiveTexture": {
        "index": 2,
        "texCoord": 2
      },
      "name": "M_friedge",
      "normalTexture": {
        "index": 3,
        "texCoord": 3
      },
      "pbrMetallicRoughness": {
        "baseColorTexture": {
          "index": 0
        },
        "metallicRoughnessTexture": {
          "index": 1,
          "texCoord": 1
        }
      }
    },
    {
      "alphaMode": "BLEND",
      "doubleSided": true,
      "extensions": {
        "KHR_materials_clearcoat": {
          "clearcoatFactor": 1.0,
          "clearcoatRoughnessFactor": 0.04
        }
      },
      "name": "M_friedge_glass",
      "pbrMetallicRoughness": {
        "baseColorFactor": [
          0.002061771027644855,
          0.005740635410364434,
          0.07722084401023134,
          0.3164966896796971
        ],
        "metallicFactor": 0.9727842894901029,
        "roughnessFactor": 0.6
      }
    },
    {
      "doubleSided": true,
      "emissiveFactor": [
        0.8107765502931974,
        0.9091348025054808,
        0.45839227237727853
      ],
      "extensions": {
        "KHR_materials_emissive_strength": {
          "emissiveStrength": 1.5
        }
      },
      "name": "M_friedge_lights",
      "normalTexture": {
        "index": 6
      },
      "pbrMetallicRoughness": {
        "baseColorTexture": {
          "index": 4
        },
        "metallicRoughnessTexture": {
          "index": 5
        }
      }
    },
    {
      "doubleSided": true,
      "name": "M_bottles",
      "pbrMetallicRoughness": {
        "baseColorTexture": {
          "index": 7
        },
        "metallicFactor": 0.0,
        "roughnessFactor": 0.6
      }
    }
  ],
  "meshes": [
    {
      "name": "fridge_M_friedge_0",
      "primitives": [
        {
          "attributes": {
            "NORMAL": 1,
            "POSITION": 0,
            "TANGENT": 2,
            "TEXCOORD_0": 3,
            "TEXCOORD_1": 4,
            "TEXCOORD_2": 5,
            "TEXCOORD_3": 6,
            "TEXCOORD_4": 7
          },
          "indices": 8,
          "material": 0,
          "mode": 4
        }
      ]
    },
    {
      "name": "fridge_M_friedge_glass_0",
      "primitives": [
        {
          "attributes": {
            "NORMAL": 10,
            "POSITION": 9,
            "TEXCOORD_0": 11
          },
          "indices": 12,
          "material": 1,
          "mode": 4
        }
      ]
    },
    {
      "name": "fridge_M_friedge_lights_0",
      "primitives": [
        {
          "attributes": {
            "NORMAL": 14,
            "POSITION": 13,
            "TANGENT": 15,
            "TEXCOORD_0": 16,
            "TEXCOORD_1": 17,
            "TEXCOORD_2": 18,
            "TEXCOORD_3": 19,
            "TEXCOORD_4": 20
          },
          "indices": 21,
          "material": 2,
          "mode": 4
        }
      ]
    },
    {
      "name": "waterBottle_M_bottles_0",
      "primitives": [
        {
          "attributes": {
            "NORMAL": 23,
            "POSITION": 22,
            "TEXCOORD_0": 24
          },
          "indices": 25,
          "material": 3,
          "mode": 4
        }
      ]
    }
  ],
  "nodes": [
    {
      "children": [
        1
      ],
      "matrix": [
        1.0,
        0.0,
        0.0,
        0.0,
        0.0,
        2.220446049250313e-16,
        -1.0,
        0.0,
        0.0,
        1.0,
        2.220446049250313e-16,
        0.0,
        0.0,
        0.0,
        0.0,
        1.0
      ],
      "name": "Sketchfab_model"
    },
    {
      "children": [
        2
      ],
      "matrix": [
        0.009999999776482582,
        0.0,
        0.0,
        0.0,
        0.0,
        0.0,
        0.009999999776482582,
        0.0,
        0.0,
        -0.009999999776482582,
        0.0,
        0.0,
        0.0,
        0.0,
        0.0,
        1.0
      ],
      "name": "a4e51c24590548a59a580a8f3f4301cf.fbx"
    },
    {
      "children": [
        3
      ],
      "name": "RootNode"
    },
    {
      "children": [
        4,
        5,
        6,
        7
      ],
      "name": "fridge"
    },
    {
      "mesh": 0,
      "name": "fridge_M_friedge_0"
    },
    {
      "mesh": 1,
      "name": "fridge_M_friedge_glass_0"
    },
    {
      "mesh": 2,
      "name": "fridge_M_friedge_lights_0"
    },
    {
      "children": [
        8
      ],
      "name": "waterBottle"
    },
    {
      "mesh": 3,
      "name": "waterBottle_M_bottles_0"
    }
  ],
  "samplers": [
    {
      "magFilter": 9729,
      "minFilter": 9987,
      "wrapS": 10497,
      "wrapT": 10497
    }
  ],
  "scene": 0,
  "scenes": [
    {
      "name": "Sketchfab_Scene",
      "nodes": [
        0
      ]
    }
  ],
  "textures": [
    {
      "sampler": 0,
      "source": 0
    },
    {
      "sampler": 0,
      "source": 1
    },
    {
      "sampler": 0,
      "source": 2
    },
    {
      "sampler": 0,
      "source": 3
    },
    {
      "sampler": 0,
      "source": 4
    },
    {
      "sampler": 0,
      "source": 5
    },
    {
      "sampler": 0,
      "source": 6
    },
    {
      "sampler": 0,
      "source": 7
    }
  ]
}
