{
  "accessors": [
    {
      "bufferView": 2,
      "componentType": 5126,
      "count": 55838,
      "max": [
        3.947540044784546,
        1.90024995803833,
        1.4778499603271484
      ],
      "min": [
        1.3352700471878052,
        -2.0556399822235107,
        -1.4624500274658203
      ],
      "type": "VEC3"
    },
    {
      "bufferView": 2,
      "byteOffset": 670056,
      "componentType": 5126,
      "count": 55838,
      "max": [
        1.0,
        1.0,
        1.0
      ],
      "min": [
        -1.0,
        -1.0,
        -1.0
      ],
      "type": "VEC3"
    },
    {
      "bufferView": 1,
      "componentType": 5126,
      "count": 55838,
      "max": [
        0.9919430017471313,
        0.9919430017471313
      ],
      "min": [
        0.008057000115513802,
        0.008394000120460987
      ],
      "type": "VEC2"
    },
    {
      "bufferView": 0,
      "componentType": 5125,
      "count": 234633,
      "type": "SCALAR"
    },
    {
      "bufferView": 2,
      "byteOffset": 1340112,
      "componentType": 5126,
      "count": 954,
      "max": [
        3.907360076904297,
        1.8985999822616577,
        1.4192099571228027
      ],
      "min": [
        1.4874900579452515,
        -1.9038699865341187,
        -1.3996200561523438
      ],
      "type": "VEC3"
    },
    {
      "bufferView": 2,
      "byteOffset": 1351560,
      "componentType": 5126,
      "count": 954,
      "max": [
        0.9916189908981323,
        1.0,
        0.9999585151672363
      ],
      "min": [
        -0.9963557720184326,
        -0.9984548687934875,
        -1.0
      ],
      "type": "VEC3"
    },
    {
      "bufferView": 1,
      "byteOffset": 446704,
      "componentType": 5126,
      "count": 954,
      "max": [
        0.9819340109825134,
        0.9882320165634155
      ],
      "min": [
        0.011741000227630138,
        0.016119999811053276
      ],
      "type": "VEC2"
    },
    {
      "bufferView": 0,
      "byteOffset": 938532,
      "componentType": 5125,
      "count": 1128,
      "type": "SCALAR"
    },
    {
      "bufferView": 2,
      "byteOffset": 1363008,
      "componentType": 5126,
      "count": 655,
      "max": [
        3.903830051422119,
        1.8782700300216675,
        1.4180699586868286
      ],
      "min": [
        1.3902699947357178,
        -1.7387900352478027,
        -1.4486099481582642
      ],
      "type": "VEC3"
    },
    {
      "bufferView": 2,
      "byteOffset": 1370868,
      "componentType": 5126,
      "count": 655,
      "max": [
        0.991073727607727,
        1.0,
        0.9992541074752808
      ],
      "min": [
        -0.8625690340995789,
        -0.9206523299217224,
        -0.9993481040000916
      ],
      "type": "VEC3"
    },
    {
      "bufferView": 1,
      "byteOffset": 454336,
      "componentType": 5126,
      "count": 655,
      "max": [
        0.9804689884185791,
        0.9882810115814209
      ],
      "min": [
        0.01181699987500906,
        0.29181399941444397
      ],
      "type": "VEC2"
    },
    {
      "bufferView": 0,
      "byteOffset": 943044,
      "componentType": 5125,
      "count": 717,
      "type": "SCALAR"
    }
  ],
  "asset": {
    "extras": {
      "author": "patritevi (https://sketchfab.com/patritevi)",
      "license": "CC-BY-NC-SA-4.0 (http://creativecommons.org/licenses/by-nc-sa/4.0/)",
      "source": "https://sketchfab.com/3d-models/jamon-aisle-supermarket-scan-d56c0d213e1449eabbc7c6e3b83a7551",
      "title": "Jamon Aisle Supermarket Scan"
    },
    "generator": "Sketchfab-12.68.0",
    "version": "2.0"
  },
  "bufferViews": [
    {
      "buffer": 0,
      "byteLength": 945912,
      "name": "floatBufferViews",
      "target": 34963
    },
    {
      "buffer": 0,
      "byteLength": 459576,
      "byteOffset": 945912,
      "byteStride": 8,
      "name": "floatBufferViews",
      "target": 34962
    },
    {
      "buffer": 0,
      "byteLength": 1378728,
      "byteOffset": 1405488,
      "byteStride": 12,
      "name": "floatBufferViews",
      "target": 34962
    }
  ],
  "buffers": [
    {
      "byteLength": 2784216,
      "uri": "scene.bin"
    }
  ],
  "extensionsUsed": [
    "KHR_materials_unlit"
  ],
  "images": [
    {
      "uri": "textures/cropped_textured_mesh_0_baseColor.jpeg"
    },
    {
      "uri": "textures/cropped_textured_mesh_1_baseColor.jpeg"
    },
    {
      "uri": "textures/cropped_textured_mesh_2_baseColor.jpeg"
    }
  ],
  "materials": [
    {
      "doubleSided": true,
      "extensions": {
        "KHR_materials_unlit": {}
      },
      "name": "cropped_textured_mesh_0",
      "pbrMetallicRoughness": {
        "baseColorTexture": {
          "index": 0
        },
        "metallicFactor": 0.0
      }
    },
    {
      "doubleSided": true,
      "extensions": {
        "KHR_materials_unlit": {}
      },
      "name": "cropped_textured_mesh_1",
      "pbrMetallicRoughness": {
        "baseColorTexture": {
          "index": 1
        },
        "metallicFactor": 0.0
      }
    },
    {
      "doubleSided": true,
      "extensions": {
        "KHR_materials_unlit": {}
      },
      "name": "cropped_textured_mesh_2",
      "pbrMetallicRoughness": {
        "baseColorTexture": {
          "index": 2
        },
        "metallicFactor": 0.0
      }
    }
  ],
  "meshes": [
    {
      "name": "Object_0",
      "primitives": [
        {
          "attributes": {
            "NORMAL": 1,
            "POSITION": 0,
            "TEXCOORD_0": 2
          },
          "indices": 3,
          "material": 0,
          "mode": 4
        }
      ]
    },
    {
      "name": "Object_1",
      "primitives": [
        {
          "attributes": {
            "NORMAL": 5,
            "POSITION": 4,
            "TEXCOORD_0": 6
          },
          "indices": 7,
          "material": 1,
          "mode": 4
        }
      ]
    },
    {
      "name": "Object_2",
      "primitives": [
        {
          "attributes": {
            "NORMAL": 9,
            "POSITION": 8,
            "TEXCOORD_0": 10
          },
          "indices": 11,
          "material": 2,
          "mode": 4
        }
      ]
    }
  ],
  "nodes": [
    {
      "children": [
        1
      ],
      "matrix": [
        1.0,
        0.0,
        0.0,
        0.0,
        0.0,
        2.220446049250313e-16,
        -1.0,
        0.0,
        0.0,
        1.0,
        2.220446049250313e-16,
        0.0,
        0.0,
        0.0,
        0.0,
        1.0
      ],
      "name": "Sketchfab_model"
    },
    {
      "children": [
        2,
        3,
        4
      ],
      "name": "cropped_textured_mesh.obj.cleaner.materialmerger.gles"
    },
    {
      "mesh": 0,
      "name": "Object_2"
    },
    {
      "mesh": 1,
      "name": "Object_3"
    },
    {
      "mesh": 2,
      "name": "Object_4"
    }
  ],
  "samplers": [
    {
      "magFilter": 9729,
      "minFilter": 9987,
      "wrapS": 10497,
      "wrapT": 10497
    }
  ],
  "scene": 0,
  "scenes": [
    {
      "name": "Sketchfab_Scene",
      "nodes": [
        0
      ]
    }
  ],
  "textures": [
    {
      "sampler": 0,
      "source": 0
    },
    {
      "sampler": 0,
      "source": 1
    },
    {
      "sampler": 0,
      "source": 2
    }
  ]
}
