{
  "accessors": [
    {
      "bufferView": 2,
      "componentType": 5126,
      "count": 65532,
      "max": [
        0.8403917551040649,
        0.20140598714351654,
        1.2262089252471924
      ],
      "min": [
        -0.965582013130188,
        -0.153041809797287,
        -0.016046036034822464
      ],
      "type": "VEC3"
    },
    {
      "bufferView": 2,
      "byteOffset": 786384,
      "componentType": 5126,
      "count": 65532,
      "max": [
        1.0,
        1.0,
        1.0
      ],
      "min": [
        -1.0,
        -1.0,
        -1.0
      ],
      "type": "VEC3"
    },
    {
      "bufferView": 3,
      "componentType": 5126,
      "count": 65532,
      "max": [
        1.0,
        0.9999988675117493,
        1.0,
        1.0
      ],
      "min": [
        -0.9999892115592957,
        -0.9999998807907104,
        -0.963351845741272,
        -1.0
      ],
      "type": "VEC4"
    },
    {
      "bufferView": 1,
      "componentType": 5126,
      "count": 65532,
      "max": [
        1.000037670135498,
        0.9998021721839905
      ],
      "min": [
        -1.3053417205810547e-05,
        -0.01194995641708374
      ],
      "type": "VEC2"
    },
    {
      "bufferView": 1,
      "byteOffset": 524256,
      "componentType": 5126,
      "count": 65532,
      "max": [
        1.000037670135498,
        0.9998021721839905
      ],
      "min": [
        -1.3053417205810547e-05,
        -0.01194995641708374
      ],
      "type": "VEC2"
    },
    {
      "bufferView": 1,
      "byteOffset": 1048512,
      "componentType": 5126,
      "count": 65532,
      "max": [
        1.000037670135498,
        0.9998021721839905
      ],
      "min": [
        -1.3053417205810547e-05,
        -0.01194995641708374
      ],
      "type": "VEC2"
    },
    {
      "bufferView": 0,
      "componentType": 5125,
      "count": 226122,
      "type": "SCALAR"
    },
    {
      "bufferView": 2,
      "byteOffset": 1572768,
      "componentType": 5126,
      "count": 23345,
      "max": [
        0.8397473096847534,
        0.19507035613059998,
        1.2223162651062012
      ],
      "min": [
        -0.9626709222793579,
        -0.17815113067626953,
        1.8621794879436493e-06
      ],
      "type": "VEC3"
    },
    {
      "bufferView": 2,
      "byteOffset": 1852908,
      "componentType": 5126,
      "count": 23345,
      "max": [
        1.0,
        1.0,
        1.0
      ],
      "min": [
        -1.0,
        -1.0,
        -1.0
      ],
      "type": "VEC3"
    },
    {
      "bufferView": 3,
      "byteOffset": 1048512,
      "componentType": 5126,
      "count": 23345,
      "max": [
        1.0,
        0.9999998211860657,
        1.0,
        1.0
      ],
      "min": [
        -0.9999178051948547,
        -1.0,
        -0.9122955203056335,
        -1.0
      ],
      "type": "VEC4"
    },
    {
      "bufferView": 1,
      "byteOffset": 1572768,
      "componentType": 5126,
      "count": 23345,
      "max": [
        1.000037670135498,
        0.9867758750915527
      ],
      "min": [
        -1.2993812561035156e-05,
        -0.01194995641708374
      ],
      "type": "VEC2"
    },
    {
      "bufferView": 1,
      "byteOffset": 1759528,
      "componentType": 5126,
      "count": 23345,
      "max": [
        1.000037670135498,
        0.9867758750915527
      ],
      "min": [
        -1.2993812561035156e-05,
        -0.01194995641708374
      ],
      "type": "VEC2"
    },
    {
      "bufferView": 1,
      "byteOffset": 1946288,
      "componentType": 5126,
      "count": 23345,
      "max": [
        1.000037670135498,
        0.9867758750915527
      ],
      "min": [
        -1.2993812561035156e-05,
        -0.01194995641708374
      ],
      "type": "VEC2"
    },
    {
      "bufferView": 0,
      "byteOffset": 904488,
      "componentType": 5125,
      "count": 90834,
      "type": "SCALAR"
    }
  ],
  "asset": {
    "extras": {
      "author": "Rendevr (https://sketchfab.com/Rendevr)",
      "license": "CC-BY-4.0 (http://creativecommons.org/licenses/by/4.0/)",
      "source": "https://sketchfab.com/3d-models/supermarket-drinks-shelf-asset-4f22309bf38e4941a3ea2237ac886acb",
      "title": "Supermarket Drinks Shelf Asset"
    },
    "generator": "Sketchfab-15.17.0",
    "version": "2.0"
  },
  "bufferViews": [
    {
      "buffer": 0,
      "byteLength": 1267824,
      "name": "floatBufferViews",
      "target": 34963
    },
    {
      "buffer": 0,
      "byteLength": 2133048,
      "byteOffset": 1267824,
      "byteStride": 8,
      "name": "floatBufferViews",
      "target": 34962
    },
    {
      "buffer": 0,
      "byteLength": 2133048,
      "byteOffset": 3400872,
      "byteStride": 12,
      "name": "floatBufferViews",
      "target": 34962
    },
    {
      "buffer": 0,
      "byteLength": 1422032,
      "byteOffset": 5533920,
      "byteStride": 16,
      "name": "floatBufferViews",
      "target": 34962
    }
  ],
  "buffers": [
    {
      "byteLength": 6955952,
      "uri": "scene.bin"
    }
  ],
  "images": [
    {
      "uri": "textures/Supermarket_Drinks_Shelf_baseColor.jpeg"
    },
    {
      "uri": "textures/Supermarket_Drinks_Shelf_metallicRoughness.png"
    },
    {
      "uri": "textures/Supermarket_Drinks_Shelf_normal.png"
    }
  ],
  "materials": [
    {
      "doubleSided": true,
      "name": "Supermarket_Drinks_Shelf",
      "normalTexture": {
        "index": 2,
        "texCoord": 1
      },
      "pbrMetallicRoughness": {
        "baseColorTexture": {
          "index": 0
        },
        "metallicRoughnessTexture": {
          "index": 1
        }
      }
    }
  ],
  "meshes": [
    {
      "name": "Supermarket Drinks Shelf_Supermarket Drinks Shelf_0",
      "primitives": [
        {
          "attributes": {
            "NORMAL": 1,
            "POSITION": 0,
            "TANGENT": 2,
            "TEXCOORD_0": 3,
            "TEXCOORD_1": 4,
            "TEXCOORD_2": 5
          },
          "indices": 6,
          "material": 0,
          "mode": 4
        }
      ]
    },
    {
      "name": "Supermarket Drinks Shelf_Supermarket Drinks Shelf_0",
      "primitives": [
        {
          "attributes": {
            "NORMAL": 8,
            "POSITION": 7,
            "TANGENT": 9,
            "TEXCOORD_0": 10,
            "TEXCOORD_1": 11,
            "TEXCOORD_2": 12
          },
          "indices": 13,
          "material": 0,
          "mode": 4
        }
      ]
    }
  ],
  "nodes": [
    {
      "children": [
        1
      ],
      "matrix": [
        1.0,
        0.0,
        0.0,
        0.0,
        0.0,
        2.220446049250313e-16,
        -1.0,
        0.0,
        0.0,
        1.0,
        2.220446049250313e-16,
        0.0,
        0.0,
        0.0,
        0.0,
        1.0
      ],
      "name": "Sketchfab_model"
    },
    {
      "children": [
        2
      ],
      "matrix": [
        0.009999999776482582,
        0.0,
        0.0,
        0.0,
        0.0,
        0.0,
        0.009999999776482582,
        0.0,
        0.0,
        -0.009999999776482582,
        0.0,
        0.0,
        0.0,
        0.0,
        0.0,
        1.0
      ],
      "name": "de9613e8744c4c43815b19c0ee3aa39a.fbx"
    },
    {
      "children": [
        3
      ],
      "name": "RootNode"
    },
    {
      "children": [
        4,
        5
      ],
      "matrix": [
        100.0,
        0.0,
        0.0,
        0.0,
        0.0,
        -1.629206793918314e-05,
        -99.99999999999868,
        0.0,
        0.0,
        99.99999999999868,
        -1.629206793918314e-05,
        0.0,
        0.0,
        0.0,
        0.0,
        1.0
      ],
      "name": "Supermarket Drinks Shelf"
    },
    {
      "mesh": 0,
      "name": "Supermarket Drinks Shelf_Supermarket Drinks Shelf_0"
    },
    {
      "mesh": 1,
      "name": "Supermarket Drinks Shelf_Supermarket Drinks Shelf_0"
    }
  ],
  "samplers": [
    {
      "magFilter": 9729,
      "minFilter": 9987,
      "wrapS": 10497,
      "wrapT": 10497
    }
  ],
  "scene": 0,
  "scenes": [
    {
      "name": "Sketchfab_Scene",
      "nodes": [
        0
      ]
    }
  ],
  "textures": [
    {
      "sampler": 0,
      "source": 0
    },
    {
      "sampler": 0,
      "source": 1
    },
    {
      "sampler": 0,
      "source": 2
    }
  ]
}
