{
  "accessors": [
    {
      "bufferView": 2,
      "componentType": 5126,
      "count": 29562,
      "max": [
        1.3739814758300781,
        -0.5190763473510742,
        1.3211538791656494
      ],
      "min": [
        -1.3606925010681152,
        -1.1090116500854492,
        -0.004071446601301432
      ],
      "type": "VEC3"
    },
    {
      "bufferView": 2,
      "byteOffset": 354744,
      "componentType": 5126,
      "count": 29562,
      "max": [
        1.0,
        1.0,
        1.0
      ],
      "min": [
        -1.0,
        -1.0,
        -1.0
      ],
      "type": "VEC3"
    },
    {
      "bufferView": 3,
      "componentType": 5126,
      "count": 29562,
      "max": [
        1.0,
        0.9999836683273315,
        1.0,
        1.0
      ],
      "min": [
        -0.9999973177909851,
        -0.9999998807907104,
        -0.9894959330558777,
        -1.0
      ],
      "type": "VEC4"
    },
    {
      "bufferView": 1,
      "componentType": 5126,
      "count": 29562,
      "max": [
        1.005518913269043,
        0.9549877643585205
      ],
      "min": [
        -8.147954940795898e-05,
        0.09540244191884995
      ],
      "type": "VEC2"
    },
    {
      "bufferView": 1,
      "byteOffset": 236496,
      "componentType": 5126,
      "count": 29562,
      "max": [
        1.005518913269043,
        0.9549877643585205
      ],
      "min": [
        -8.147954940795898e-05,
        0.09540244191884995
      ],
      "type": "VEC2"
    },
    {
      "bufferView": 1,
      "byteOffset": 472992,
      "componentType": 5126,
      "count": 29562,
      "max": [
        1.005518913269043,
        0.9549877643585205
      ],
      "min": [
        -8.147954940795898e-05,
        0.09540244191884995
      ],
      "type": "VEC2"
    },
    {
      "bufferView": 0,
      "componentType": 5125,
      "count": 123018,
      "type": "SCALAR"
    }
  ],
  "asset": {
    "extras": {
      "author": "Rendevr (https://sketchfab.com/Rendevr)",
      "license": "CC-BY-4.0 (http://creativecommons.org/licenses/by/4.0/)",
      "source": "https://sketchfab.com/3d-models/supermarket-potato-chips-shelf-asset-4e4ccc3074f0474bbfa23611c46a4029",
      "title": "Supermarket Potato Chips Shelf Asset"
    },
    "generator": "Sketchfab-15.17.0",
    "version": "2.0"
  },
  "bufferViews": [
    {
      "buffer": 0,
      "byteLength": 492072,
      "name": "floatBufferViews",
      "target": 34963
    },
    {
      "buffer": 0,
      "byteLength": 709488,
      "byteOffset": 492072,
      "byteStride": 8,
      "name": "floatBufferViews",
      "target": 34962
    },
    {
      "buffer": 0,
      "byteLength": 709488,
      "byteOffset": 1201560,
      "byteStride": 12,
      "name": "floatBufferViews",
      "target": 34962
    },
    {
      "buffer": 0,
      "byteLength": 472992,
      "byteOffset": 1911048,
      "byteStride": 16,
      "name": "floatBufferViews",
      "target": 34962
    }
  ],
  "buffers": [
    {
      "byteLength": 2384040,
      "uri": "scene.bin"
    }
  ],
  "images": [
    {
      "uri": "textures/Supermarket_Chips_Shelf_baseColor.jpeg"
    },
    {
      "uri": "textures/Supermarket_Chips_Shelf_metallicRoughness.png"
    },
    {
      "uri": "textures/Supermarket_Chips_Shelf_normal.png"
    }
  ],
  "materials": [
    {
      "doubleSided": true,
      "name": "Supermarket_Chips_Shelf",
      "normalTexture": {
        "index": 2
      },
      "pbrMetallicRoughness": {
        "baseColorTexture": {
          "index": 0
        },
        "metallicFactor": 0.0,
        "metallicRoughnessTexture": {
          "index": 1
        }
      }
    }
  ],
  "meshes": [
    {
      "name": "Supermarket Chips Shelf_Supermarket Chips Shelf_0",
      "primitives": [
        {
          "attributes": {
            "NORMAL": 1,
            "POSITION": 0,
            "TANGENT": 2,
            "TEXCOORD_0": 3,
            "TEXCOORD_1": 4,
            "TEXCOORD_2": 5
          },
          "indices": 6,
          "material": 0,
          "mode": 4
        }
      ]
    }
  ],
  "nodes": [
    {
      "children": [
        1
      ],
      "matrix": [
        1.0,
        0.0,
        0.0,
        0.0,
        0.0,
        2.220446049250313e-16,
        -1.0,
        0.0,
        0.0,
        1.0,
        2.220446049250313e-16,
        0.0,
        0.0,
        0.0,
        0.0,
        1.0
      ],
      "name": "Sketchfab_model"
    },
    {
      "children": [
        2
      ],
      "matrix": [
        0.009999999776482582,
        0.0,
        0.0,
        0.0,
        0.0,
        0.0,
        0.009999999776482582,
        0.0,
        0.0,
        -0.009999999776482582,
        0.0,
        0.0,
        0.0,
        0.0,
        0.0,
        1.0
      ],
      "name": "df70463c627e47268ca8d3fc7b0b1af9.fbx"
    },
    {
      "children": [
        3
      ],
      "name": "RootNode"
    },
    {
      "children": [
        4
      ],
      "matrix": [
        100.0,
        0.0,
        0.0,
        0.0,
        0.0,
        -1.629206793918314e-05,
        -99.99999999999868,
        0.0,
        0.0,
        99.99999999999868,
        -1.629206793918314e-05,
        0.0,
        0.0,
        0.0,
        0.0,
        1.0
      ],
      "name": "Supermarket Chips Shelf"
    },
    {
      "mesh": 0,
      "name": "Supermarket Chips Shelf_Supermarket Chips Shelf_0"
    }
  ],
  "samplers": [
    {
      "magFilter": 9729,
      "minFilter": 9987,
      "wrapS": 10497,
      "wrapT": 10497
    }
  ],
  "scene": 0,
  "scenes": [
    {
      "name": "Sketchfab_Scene",
      "nodes": [
        0
      ]
    }
  ],
  "textures": [
    {
      "sampler": 0,
      "source": 0
    },
    {
      "sampler": 0,
      "source": 1
    },
    {
      "sampler": 0,
      "source": 2
    }
  ]
}
